<svg xmlns="http://www.w3.org/2000/svg" version="1.1" width="462.9955" height="344.1079" id="svg4" viewBox="0 0 462.9955 344.1079">
    <path d="M138.1102.2132C196.0801-.207 254.05.143 312.01.0332c.9 15.5299.8702 31.09 2.05 46.5998-2.3499-.3197-7.05-.97-9.3999-1.3-3.64-9.5-5.4701-21.2198-14.7-27.1998-8.1-5.69-18.5799-4.79-27.9399-5.1602-19.7402.0403-39.5102-.3798-59.2302.72-3.57 26.28-1.0698 52.91-1.7799 79.33 18.6001-.2598 37.3201 1.01 55.84-1.3097 4.8101-.6302 9.57-2.4001 13.3801-5.44 5.61-6.8601 7.3899-15.7102 9.2299-24.12 2.8-.0601 5.7101-.1001 8.5501-.1502-.0201 13.66 0 27.32 0 40.99 27.76-19.81 64.3598-24.2101 97.16-17.21 14.6798 3.97 29.13 10.3 40.54 20.56 29.3099 27.28 43.27 70.1102 34.8698 109.34-4.1199 21.42-15.12 40.8002-27.39 58.54-15.3698 20.3499-35.21 37.5703-58.1599 48.84-26.4299 13.8002-56.1401 21.39-86.0201 21.0002-30.1799.6597-60.7298-5.9802-87.12-20.8403-29.2198-17.0597-53.2899-41.8297-72.9099-69.17-13.8501-19.36-26.3501-39.7-37.02-60.98-8.9801-.0197-17.9699-.03-26.9501-.0498.2302 21.67-.4799 43.34.18 65.01.2401 6.4999.9601 14.88 7.5901 18.1999 8.4699 3.9402 18.03 4.74 27.1701 6.08.0198 2.6802.0499 8.0399.07 10.72H0c.0102-2.6801.0499-8.02.0703-10.69 9.3898-1.7398 20.0001-2.3198 27.75-8.49 4.8898-6.3198 3.35-15.37 4.5499-22.78 1.44-38.99.2296-78.03.69-117.04-.4102-13.22.8396-26.94-3.3602-39.71-1.2699-3.86-5.2597-5.81-8.8296-7.0398C14.0902 85.263 7.0702 84.393.0499 83.7632.03 81.183.0204 78.6132 0 76.033c35.0101.1199 70.02-.2401 105.0301.13 14.1701.7 29.31.5702 41.9199 8.0199 13.64 6.4103 22.8801 20.11 25.1702 34.8202 2.2199 15.2898 2.1598 32.55-7.84 45.2999-10.4001 12.32-25.1 20.5699-40.5301 24.85 9.1401 29.8 26.7001 56.5302 49.14 78 32.1599 29.56 75.6 45.9902 119.1201 46.7697 21.1498.6205 41.3299-6.5795 61.3199-12.47-22.6701-1.3996-45.58-7.0595-64.2399-20.5196-23.91-16.23-40.32-43.05-43.45-71.8401-35.8801-.1998-71.7602.1202-107.64-.1698.4198-1.3802 1.2798-4.1403 1.7098-5.5103 9.9202-3.06 21.6502-1.66 30.07-8.5898 4.67-6.08 3.4302-14.6401 4.2001-21.7701.14-45.01-.0499-90.0198.0799-135.04-.25-8.83.2801-19.57-6.8298-26.14-7.8001-4.2198-17.17-3.46-25.5501-5.6-2.7499-.56-2.6501-3.8398-3.5699-6.06zM67.97 92.023c-3.5799 1.7699-2.8599 6.8502-3.0198 9.97-.1301 25.04.1999 50.07.0499 75.1102 11.78-.0502 23.58.1199 35.3401-.65 8.1598-.7501 16.7-1.7002 23.62-6.5001 25.7499-14.3 25.99-57.72-.0102-71.86-12.21-7.42-27.0698-8.14-40.9598-8.1301-4.9802.3802-10.4102-.26-15.0202 2.06zm250.0302 16.01c-9.9 5.9199-17 15.37-22.8402 25.09-10.5698 17.8802-13.5998 39.02-14.2699 59.4602 7.6099-2.6501 15.1501-6.0302 21.17-11.5101 7.2099-6.78 11.7201-15.7 17.3401-23.7101 2.0999-3.78 7.9498-1.1 11.0299-3.06-3.99 18.53-10.0899 36.5099-15.2501 54.74-11.0599-.02-22.11 0-33.1498.04 3.28 21.6199 10.5999 43.71 26.6998 59.2402 18.15 17.7299 46.8102 22.5496 70.3001 13.7599 11.91-5.61 22.9099-13.5802 30.8001-24.23 18.26-24.77 22.5-57.5002 18.62-87.3802-2.2601-21.4398-10.3201-43.45-27.4201-57.4798-9.3201-7.3202-20.2099-13.4-32.19-14.6401-17.2499-1.91-36.1499-.48-50.8399 9.68zm-116.9901-1.99c.4 26.1999-.83 52.44.4901 78.6202-.11 4.0498 2.0098 8.7599 6.3499 9.54 11.8599 2.23 24.01 1.7399 36.03 1.9397 1.1501-16.21 1.99-32.7798 8.1701-48.03 4.4498-12.71 13.6899-22.8398 20.95-33.9598-5.9502-4.32-12.7902-7.64-20.2901-7.8101-17.2199-.82-34.4699-.15-51.7-.3z" style="fill:#040204;fill-rule:evenodd" id="path2"/>
</svg>

